<svg id="Layer_1" height="512" viewBox="0 0 256 256" width="512" xmlns="http://www.w3.org/2000/svg"><g><g><g><g><g><g><path d="m172.805 31.76c-16.63 0-31.575 7.215-41.876 18.685-1.568 1.746-4.291 1.746-5.859 0-10.3-11.47-25.245-18.685-41.876-18.685-31.076 0-56.267 25.192-56.267 56.267 0 46.346 71.183 113.239 94.074 133.553 3.996 3.546 10.001 3.546 13.997 0 22.891-20.313 94.074-87.207 94.074-133.553.001-31.075-25.191-56.267-56.267-56.267z" fill="#e63950"/></g></g></g></g><g><g><path d="m75.53 169.29c-.591 0-1.141-.25-1.521-.69-.35-.41-.52-.93-.479-1.46.039-.53.279-1.02.689-1.36.8-.7 2.13-.6 2.82.2.72.84.63 2.1-.21 2.83-.359.31-.829.48-1.299.48zm-5.171-6.11c-.59 0-1.159-.27-1.54-.73-.05-.06-.1-.13-.159-.19-.061-.08-.13-.16-.19-.24-12.22-14.84-21.6-28.62-27.89-40.95-6.37-12.5-9.62-23.62-9.65-33.04 0-28.82 23.45-52.27 52.26-52.27 14.82 0 29 6.33 38.9 17.36.74.82.67 2.09-.15 2.82-.79.71-2.12.64-2.819-.15-9.151-10.19-22.241-16.03-35.921-16.03-12.881 0-24.99 5.03-34.12 14.15-9.13 9.13-14.15 21.25-14.15 34.12-.03 8.64 3.07 19.14 9.23 31.22 6.239 12.25 15.46 25.78 27.39 40.23.12.14.24.28.35.42.71.85.591 2.11-.26 2.82-.36.29-.81.46-1.281.46z" fill="#e8566f"/></g></g><g><path d="m207.279 43.554c7.393 9.523 11.794 21.484 11.794 34.474 0 46.346-71.183 113.239-94.074 133.553-3.997 3.546-10.001 3.546-13.998 0-4.892-4.341-11.991-10.811-20.129-18.752 12.221 12.531 23.315 22.706 30.129 28.752 3.996 3.546 10.001 3.546 13.998 0 22.891-20.313 94.074-87.207 94.074-133.553 0-18.087-8.534-34.18-21.794-44.474z" fill="#d10028"/></g><g><path d="m210.014 45.819c8.75 9.918 14.058 22.943 14.058 37.209 0 46.346-71.183 113.239-94.074 133.553-3.997 3.546-10.001 3.546-13.998 0-5.397-4.789-13.478-12.168-22.678-21.256 11.244 11.385 21.323 20.616 27.678 26.256 3.996 3.546 10.001 3.546 13.998 0 22.891-20.313 94.074-87.207 94.074-133.553.001-16.811-7.371-31.899-19.058-42.209z" fill="#b7022d"/></g><g><g><path d="m46.305 74.164 40.001 8.566c5.901-3.025 12.079-5.479 18.447-7.329l12.22-3.549 12.153-8.491c1.422-.993 3.38-.646 4.373.776l.05.072c2.124 3.041 1.382 7.228-1.659 9.352l-8.194 5.725c-.579.405-.747 1.189-.384 1.795.214.357.58.595.993.646l28.078 3.418c2.726.332 4.667 2.811 4.335 5.537-.332 2.726-2.811 4.667-5.537 4.335l-28.731-3.497 34.968 4.256c2.726.332 4.667 2.811 4.335 5.537-.332 2.726-2.811 4.667-5.537 4.335l-34.968-4.256 28.733 3.497c2.726.332 4.667 2.811 4.335 5.537-.332 2.726-2.811 4.667-5.537 4.335l-28.733-3.497 22.498 2.738c2.726.332 4.667 2.811 4.335 5.537-.332 2.726-2.811 4.667-5.537 4.335l-22.498-2.738-18.576-2.261c-6.45-.785-12.517-3.484-17.419-7.748l-43.344-2.2c-15.718 0-28.46-12.742-28.46-28.46s12.742-28.46 28.46-28.46l3.711 19.013c.308 1.572 1.523 2.809 3.089 3.144z" fill="#fcc4ae"/></g><g><path d="m161.75 101.31c-.31 2.53-2.45 4.38-4.93 4.38h-.09c-.17-.01-.34-.02-.51-.04l-6.24-.76c2.73.33 4.67 2.81 4.34 5.54-.04.29-.1.57-.18.83-.62 2.09-2.55 3.54-4.75 3.54-.2 0-.41-.02-.61-.04l-6.24-.76c2.73.33 4.67 2.81 4.34 5.54-.3 2.52-2.44 4.37-4.92 4.37-.2 0-.41-.01-.62-.04l-22.49-2.73-18.58-2.26c-6.45-.79-12.52-3.49-17.42-7.75l-43.34-2.2c-15.72 0-28.46-12.75-28.46-28.46 0-15.72 12.74-28.46 28.46-28.46l3.71 19.01c.3 1.57 1.52 2.81 3.09 3.14l40 8.57c5.9-3.02 12.07-5.48 18.44-7.33l12.22-3.55 12.16-8.49c1.42-.99 3.38-.64 4.37.78l.05.07c2.12 3.04 1.38 7.23-1.66 9.35l-8.19 5.73c-.58.4-.75 1.19-.39 1.79.22.36.58.6 1 .65l28.07 3.42c2.73.33 4.67 2.81 4.34 5.53-.26 2.12-1.8 3.76-3.76 4.23-.35.1-.72.14-1.1.15h-.07c-.19 0-.38-.02-.57-.04l.46.06 5.74.7c2.72.33 4.67 2.81 4.33 5.53z" fill="#fcc4ae"/></g><g><path d="m156.72 90.68c-.26 2.12-1.8 3.76-3.76 4.23l-1.1.15-.18.02-.46-.06-27.775-3.379c-.549-.067-.94-.567-.872-1.116l.006-.045c.271-2.193 2.269-3.75 4.462-3.478z" fill="#f2ad97"/></g><g><path d="m161.75 101.31c-.31 2.53-2.45 4.38-4.93 4.38h-.09l-.01-.01-34.486-4.171c-.545-.066-.935-.559-.874-1.104l.023-.203c.249-2.221 2.27-3.808 4.487-3.522z" fill="#f2ad97"/></g><g><path d="m154.14 111.26c-.62 2.09-2.55 3.54-4.75 3.54-.2 0-.41-.02-.61-.04l-6.24-.76-21.968-2.676c-.288-.035-.493-.297-.458-.585.271-2.211 2.296-3.775 4.504-3.478l12.932 1.739z" fill="#f2ad97"/></g><g><g><path d="m149.981 104.89-.628-.076c0 .202-.012.407-.037.613-.332 2.726-2.811 4.667-5.537 4.335l-6.232-.759c2.725.333 4.664 2.811 4.332 5.536-.332 2.726-2.811 4.667-5.537 4.335l-22.498-2.738-18.576-2.261c-6.45-.785-12.517-3.484-17.42-7.748l-43.344-2.2c-6.585 0-12.647-2.237-17.469-5.991 5.208 6.688 13.336 10.991 22.469 10.991l43.344 2.2c4.902 4.265 10.969 6.963 17.42 7.748l18.576 2.261 22.498 2.738c2.726.332 5.205-1.609 5.537-4.335.332-2.725-1.608-5.203-4.332-5.536l6.232.759c2.726.332 5.205-1.609 5.537-4.335.332-2.727-1.608-5.206-4.335-5.537z" fill="#f2ad97"/></g></g></g></g><g><g><path d="m237.93 152.35c0 15.72-12.74 28.46-28.46 28.46l-34.6 1.76-8.74.44c-4.91 4.27-10.97 6.97-17.42 7.75l-18.58 2.26-22.5 2.74c-.2.02-.4.04-.6.04-2.48 0-4.62-1.85-4.93-4.37-.34-2.72 1.59-5.2 4.31-5.54l-6.21.76c-.2.02-.41.04-.61.04-2.48 0-4.62-1.85-4.93-4.38-.33-2.71 1.6-5.19 4.31-5.53l-6.21.76c-.2.02-.41.04-.61.04-2.48 0-4.62-1.85-4.93-4.38-.33-2.73 1.61-5.2 4.34-5.54l5.92-.72c-.1.01-.19.01-.29.01-2.48 0-4.62-1.85-4.93-4.38-.34-2.73 1.6-5.21 4.33-5.54l28.08-3.41c.41-.06.78-.29.99-.65.36-.61.2-1.39-.38-1.8l-8.2-5.72c-3.04-2.12-3.78-6.31-1.66-9.35l.06-.07c.99-1.43 2.95-1.77 4.37-.78l12.15 8.49 12.22 3.55c6.37 1.85 12.55 4.3 18.45 7.33l42.52-9.11.06-.01.02-.1c4.71-6.73 8.98-13.52 12.56-20.26 11.64 3.57 20.1 14.41 20.1 27.21z" fill="#fcc4ae"/></g><g><g><path d="m226.938 129.882c3.755 4.823 5.992 10.886 5.992 17.468 0 15.72-12.74 28.46-28.46 28.46l-34.6 1.76-8.74.44c-4.91 4.27-10.97 6.97-17.42 7.75l-18.58 2.26-22.5 2.74c-.19.019-.379.037-.569.039 0 .208.012.419.039.631.31 2.52 2.45 4.37 4.93 4.37.2 0 .4-.02.6-.04l22.5-2.74 18.58-2.26c6.45-.78 12.51-3.48 17.42-7.75l8.74-.44 34.6-1.76c15.72 0 28.46-12.74 28.46-28.46 0-9.128-4.303-17.259-10.992-22.468z" fill="#f2ad97"/></g></g><g><path d="m92.255 162.568c.26 2.12 1.8 3.76 3.76 4.23l1.1.15.18.02.46-.06 27.775-3.379c.549-.067.94-.567.872-1.116l-.006-.045c-.271-2.193-2.269-3.75-4.462-3.478z" fill="#f2ad97"/></g><g><path d="m87.225 173.198c.31 2.53 2.45 4.38 4.93 4.38h.09l.01-.01 34.486-4.171c.545-.066.935-.559.874-1.104l-.023-.203c-.249-2.221-2.27-3.808-4.487-3.522z" fill="#f2ad97"/></g><g><path d="m94.835 183.148c.62 2.09 2.55 3.54 4.75 3.54.2 0 .41-.02.61-.04l6.24-.76 21.968-2.676c.288-.035.493-.297.458-.585-.271-2.211-2.296-3.775-4.504-3.478l-12.932 1.74z" fill="#f2ad97"/></g></g></g></svg>